<svg width="15" height="17" viewBox="0 0 15 17" fill="none" xmlns="http://www.w3.org/2000/svg">
<path fill-rule="evenodd" clip-rule="evenodd" d="M7.5 9.375C6.98223 9.375 6.5625 9.79473 6.5625 10.3125C6.5625 10.8303 6.98223 11.25 7.5 11.25C8.01777 11.25 8.4375 10.8303 8.4375 10.3125C8.4375 9.79473 8.01777 9.375 7.5 9.375ZM5.3125 10.3125C5.3125 9.10438 6.29188 8.125 7.5 8.125C8.70812 8.125 9.6875 9.10438 9.6875 10.3125C9.6875 11.5206 8.70812 12.5 7.5 12.5C6.29188 12.5 5.3125 11.5206 5.3125 10.3125Z" fill="#BDBDBD"/>
<path fill-rule="evenodd" clip-rule="evenodd" d="M7.5 11.25C7.84518 11.25 8.125 11.5298 8.125 11.875V13.75C8.125 14.0952 7.84518 14.375 7.5 14.375C7.15482 14.375 6.875 14.0952 6.875 13.75V11.875C6.875 11.5298 7.15482 11.25 7.5 11.25Z" fill="#BDBDBD"/>
<path fill-rule="evenodd" clip-rule="evenodd" d="M0 6.875C0 6.18464 0.559644 5.625 1.25 5.625H13.75C14.4404 5.625 15 6.18464 15 6.875V15.625C15 16.3154 14.4404 16.875 13.75 16.875H1.25C0.559644 16.875 0 16.3154 0 15.625V6.875ZM13.75 6.875H1.25V15.625H13.75V6.875Z" fill="#BDBDBD"/>
<path fill-rule="evenodd" clip-rule="evenodd" d="M7.5 1.25C6.91984 1.25 6.36344 1.48047 5.9532 1.8907C5.54297 2.30094 5.3125 2.85734 5.3125 3.4375V6.25C5.3125 6.59518 5.03268 6.875 4.6875 6.875C4.34232 6.875 4.0625 6.59518 4.0625 6.25V3.4375C4.0625 2.52582 4.42466 1.65148 5.06932 1.00682C5.71398 0.362164 6.58832 0 7.5 0C8.41168 0 9.28602 0.362164 9.93068 1.00682C10.5753 1.65148 10.9375 2.52582 10.9375 3.4375V6.25C10.9375 6.59518 10.6577 6.875 10.3125 6.875C9.96732 6.875 9.6875 6.59518 9.6875 6.25V3.4375C9.6875 2.85734 9.45703 2.30094 9.0468 1.8907C8.63656 1.48047 8.08016 1.25 7.5 1.25Z" fill="#BDBDBD"/>
</svg>
