<svg width="50" height="51" viewBox="0 0 50 51" fill="none" xmlns="http://www.w3.org/2000/svg">
<path d="M32.4584 25.5C32.4584 29.7075 29.125 33.1075 25 33.1075C20.875 33.1075 17.5417 29.7075 17.5417 25.5C17.5417 21.2925 20.875 17.8925 25 17.8925C29.125 17.8925 32.4584 21.2925 32.4584 25.5Z" stroke="#0F4752" stroke-width="1.5" stroke-linecap="round" stroke-linejoin="round"/>
<path d="M25 43.0738C32.3541 43.0738 39.2083 38.6537 43.9791 31.0037C45.8541 28.0075 45.8541 22.9712 43.9791 19.975C39.2083 12.325 32.3541 7.905 25 7.905C17.6458 7.905 10.7916 12.325 6.02081 19.975C4.14581 22.9712 4.14581 28.0075 6.02081 31.0037C10.7916 38.6537 17.6458 43.0738 25 43.0738Z" stroke="#0F4752" stroke-width="2" stroke-linecap="round" stroke-linejoin="round"/>
</svg>
