<svg width="25" height="25" viewBox="0 0 21 21" fill="none" xmlns="http://www.w3.org/2000/svg">
<path fill-rule="evenodd" clip-rule="evenodd" d="M10.0915 10.5C9.57372 10.5 9.15399 10.9197 9.15399 11.4375C9.15399 11.9553 9.57372 12.375 10.0915 12.375C10.6093 12.375 11.029 11.9553 11.029 11.4375C11.029 10.9197 10.6093 10.5 10.0915 10.5ZM7.90399 11.4375C7.90399 10.2294 8.88337 9.25 10.0915 9.25C11.2996 9.25 12.279 10.2294 12.279 11.4375C12.279 12.6456 11.2996 13.625 10.0915 13.625C8.88337 13.625 7.90399 12.6456 7.90399 11.4375Z" fill="#BDBDBD"/>
<path fill-rule="evenodd" clip-rule="evenodd" d="M10.0915 12.375C10.4367 12.375 10.7165 12.6548 10.7165 13V14.875C10.7165 15.2202 10.4367 15.5 10.0915 15.5C9.74631 15.5 9.46649 15.2202 9.46649 14.875V13C9.46649 12.6548 9.74631 12.375 10.0915 12.375Z" fill="#BDBDBD"/>
<path fill-rule="evenodd" clip-rule="evenodd" d="M2.59149 8C2.59149 7.30964 3.15114 6.75 3.84149 6.75H16.3415C17.0318 6.75 17.5915 7.30964 17.5915 8V16.75C17.5915 17.4404 17.0318 18 16.3415 18H3.84149C3.15114 18 2.59149 17.4404 2.59149 16.75V8ZM16.3415 8H3.84149V16.75H16.3415V8Z" fill="#BDBDBD"/>
<path fill-rule="evenodd" clip-rule="evenodd" d="M10.0915 2.375C9.51133 2.375 8.95493 2.60547 8.5447 3.0157C8.13446 3.42594 7.90399 3.98234 7.90399 4.5625V7.375C7.90399 7.72018 7.62417 8 7.27899 8C6.93381 8 6.65399 7.72018 6.65399 7.375V4.5625C6.65399 3.65082 7.01616 2.77648 7.66081 2.13182C8.30547 1.48716 9.17981 1.125 10.0915 1.125C11.0032 1.125 11.8775 1.48716 12.5222 2.13182C13.1668 2.77648 13.529 3.65082 13.529 4.5625V7.375C13.529 7.72018 13.2492 8 12.904 8C12.5588 8 12.279 7.72018 12.279 7.375V4.5625C12.279 3.98234 12.0485 3.42594 11.6383 3.0157C11.2281 2.60547 10.6717 2.375 10.0915 2.375Z" fill="#BDBDBD"/>
</svg>
