<svg width="34" height="38" viewBox="0 0 34 38" fill="none" xmlns="http://www.w3.org/2000/svg">
<g filter="url(#filter0_d_53_271)">
<path d="M32.313 9.44216C32.2785 9.44216 32.2268 9.44216 32.1752 9.44216C23.0603 8.52895 13.9627 8.18434 4.95126 9.09755L1.43628 9.44216C0.712606 9.51108 0.0750856 8.99417 0.00616445 8.2705C-0.0627567 7.54682 0.454152 6.92653 1.16059 6.85761L4.67557 6.51301C13.8421 5.58257 23.1293 5.94441 32.4336 6.85761C33.1401 6.92653 33.657 7.56405 33.588 8.2705C33.5364 8.94248 32.9678 9.44216 32.313 9.44216Z" fill="#FF0000" fill-opacity="0.7"/>
<path d="M10.7769 7.70194C10.708 7.70194 10.6391 7.70194 10.553 7.68471C9.86374 7.5641 9.3813 6.89211 9.50191 6.2029L9.88097 3.94574C10.1567 2.29163 10.5357 0 14.5503 0H19.0646C23.0965 0 23.4756 2.37778 23.7341 3.96297L24.1131 6.2029C24.2337 6.90934 23.7513 7.58133 23.0621 7.68471C22.3556 7.80532 21.6837 7.32287 21.5803 6.63366L21.2012 4.39372C20.96 2.89469 20.9083 2.60177 19.0819 2.60177H14.5675C12.7412 2.60177 12.7067 2.843 12.4483 4.37649L12.052 6.61643C11.9486 7.25395 11.3972 7.70194 10.7769 7.70194Z" fill="#FF0000" fill-opacity="0.7"/>
<path d="M22.3379 37.0453H11.276C5.26264 37.0453 5.02142 33.7198 4.83188 31.0319L3.71192 13.681C3.66023 12.9745 4.21159 12.3542 4.91804 12.3026C5.64171 12.2681 6.24477 12.8022 6.29646 13.5087L7.41643 30.8596C7.60596 33.4786 7.67488 34.4607 11.276 34.4607H22.3379C25.9562 34.4607 26.0252 33.4786 26.1975 30.8596L27.3174 13.5087C27.3691 12.8022 27.9894 12.2681 28.6958 12.3026C29.4023 12.3542 29.9537 12.9573 29.902 13.681L28.782 31.0319C28.5925 33.7198 28.3512 37.0453 22.3379 37.0453Z" fill="#FF0000" fill-opacity="0.7"/>
<path d="M19.6666 27.5685H13.929C13.2225 27.5685 12.6367 26.9826 12.6367 26.2762C12.6367 25.5697 13.2225 24.9839 13.929 24.9839H19.6666C20.3731 24.9839 20.9589 25.5697 20.9589 26.2762C20.9589 26.9826 20.3731 27.5685 19.6666 27.5685Z" fill="#FF0000" fill-opacity="0.7"/>
<path d="M21.1138 20.6763H12.4987C11.7923 20.6763 11.2064 20.0905 11.2064 19.3841C11.2064 18.6776 11.7923 18.0918 12.4987 18.0918H21.1138C21.8203 18.0918 22.4061 18.6776 22.4061 19.3841C22.4061 20.0905 21.8203 20.6763 21.1138 20.6763Z" fill="#FF0000" fill-opacity="0.7"/>
</g>
<defs>
<filter id="filter0_d_53_271" x="0" y="0" width="33.5942" height="37.0453" filterUnits="userSpaceOnUse" color-interpolation-filters="sRGB">
<feFlood flood-opacity="0" result="BackgroundImageFix"/>
<feColorMatrix in="SourceAlpha" type="matrix" values="0 0 0 0 0 0 0 0 0 0 0 0 0 0 0 0 0 0 127 0" result="hardAlpha"/>
<feOffset/>
<feComposite in2="hardAlpha" operator="out"/>
<feColorMatrix type="matrix" values="0 0 0 0 0 0 0 0 0 0 0 0 0 0 0 0 0 0 0.25 0"/>
<feBlend mode="normal" in2="BackgroundImageFix" result="effect1_dropShadow_53_271"/>
<feBlend mode="normal" in="SourceGraphic" in2="effect1_dropShadow_53_271" result="shape"/>
</filter>
</defs>
</svg>
