<?xml version="1.0" encoding="UTF-8"?>
<svg id="Capa_1" data-name="Capa 1" xmlns="http://www.w3.org/2000/svg" viewBox="0 0 849.5 847.58">
  <path d="M.32,455.99c0-18.99-.82-36.13,.14-53.18,3.88-68.96,22.06-133.95,57.98-193.17C128.1,94.79,229.24,24.38,362.36,4.82c188.73-27.72,361.18,65.7,445.8,238.09,3.32,6.76,6.35,11.38,15.26,12.79,18.39,2.92,29.45,21.67,25.15,39.29-4.47,18.31-22.21,29.05-40.66,24.62-17.37-4.17-28.16-22.73-23.1-40.72,1.44-5.13,.76-9.24-1.36-13.87-38.26-83.86-97.83-147.55-179.82-190.06-2.45-1.27-5.08-2.19-7.52-3.23-2.72,3.24-1.94,6.46-1.95,9.43-.07,32.21-.14,64.42,.04,96.63,.03,5.5-1.61,9.55-5.55,13.42-18.75,18.39-37.27,37.01-55.84,55.58-2.01,2.01-3.87,4.16-6.51,7.01,7.45,11.03,14.66,22.04,22.28,32.76,2.29,3.23,6.5,2.22,9.96,2.22,42.39,.06,84.78,.21,127.16-.1,8.14-.06,10.8,2.62,10.63,10.71-.44,21.17-.18,42.35-.11,63.53,0,3.24-.63,6.66,2.05,10.2h113.34c2.7-4.87-2.36-11.88,3.06-13.89,8.52-3.17,17.83-4.21,27.44-6.29,4.51,13.22,5.15,26.02,6.02,38.54,7.66,111.14-22.65,211.04-92.66,297.66-73.16,90.51-168.66,143.22-284.39,155.87-197.18,21.55-379.3-93.86-445.76-280.39-1.59-4.46-3.52-8.07-7.99-10.7-16.79-9.85-21.57-30.56-11.16-46.39,10.08-15.33,31.4-19.26,46.74-8.61,15.31,10.63,18.34,31.28,6.84,46.74-1.31,1.77-2.72,3.46-4.66,5.92,6.89,21.65,16.91,42.25,28.29,63.14,3.06-2.26,5.25-3.67,7.22-5.35,30.51-26.12,60.94-52.33,91.55-78.35,4.25-3.61,6.07-7.52,6.04-13.09-.17-32.43,.33-64.87-.31-97.29-.2-10.44,3.23-13.15,13.25-12.9,25.81,.64,51.66,.24,77.49,.18,3.46,0,7.1,.61,10.89-2.1v-66.42c-5.01-2.99-9.98-1.89-14.73-1.94-14.57-.15-29.15-.31-43.71,.05-7.12,.18-9.83-2.27-9.68-9.57,.37-18.91,.12-37.83,.12-56.08-3.65-2.76-6.84-2.18-9.86-2.18-46.14-.04-92.28,.09-138.42-.17-6.56-.04-9.79,2.17-12.19,8.26-20.37,51.79-30.34,105.33-27.26,161,.5,9.06-2.51,12.92-11.34,13.59-6.27,.48-12.47,1.98-22.12,3.6Zm101.73,189.72c80.1,108.51,185.65,167.5,320.27,169.42,103.98,1.49,194.05-35.56,271.56-106.51-39.06-34.87-76.99-68.73-115.55-103.15-9.91,11.05-19.26,20.99-28.02,31.42-4.51,5.38-9.41,7.56-16.51,7.45-24.67-.4-49.36-.16-74.34-.16-2.43,8.73-1.24,16.91-1.36,24.96-.08,5.69-1.97,8.55-8.1,8.53-50.78-.1-101.56-.09-152.34-.02-5.35,0-7.55-2.33-7.48-7.62,.14-11.47-.21-22.95,.11-34.41,.16-5.77-1.77-9.97-5.85-13.99-22.16-21.85-44.09-43.92-66.14-65.88-1.8-1.79-3.88-3.31-5.66-4.81-36.73,31.48-72.88,62.46-110.59,94.78Zm185.95-71.98c2.88-2.72,2.13-5.53,2.14-8.05,.08-15.66,.25-31.33-.04-46.98-.13-6.67,2.55-8.88,9.02-8.86,49.89,.15,99.78,.16,149.66-.01,6.9-.02,9.37,2.58,9.31,9.37-.21,26.91-.11,53.82-.03,80.73,.01,3.66-.68,7.53,2.42,11.57,21.3,0,43.1,.14,64.89-.21,2.35-.04,4.96-2.64,6.94-4.58,12.6-12.37,23.98-26.24,37.8-37.03,21.46-16.75,30.12-36.88,26.56-63.93-2.04-15.55-.37-31.59-.37-46.75-4.02-2.78-7.41-2.39-10.67-2.4-15.89-.05-31.79-.27-47.68,.07-7.19,.15-9.77-2.54-9.69-9.68,.27-24.04-2-48.31,.57-72.08,4.12-38.13-6.2-70.44-30.95-99.05-3.5-4.05-6.54-6.32-12.01-6.28-28.92,.21-57.83,.08-86.75,.13-2.79,0-5.81-.56-9.07,2.85,0,17.71-.29,36.43,.14,55.12,.17,7.67-2.71,10.03-10.07,9.86-15.88-.38-31.78-.15-47.68-.06-3.21,.02-6.66-.56-10.04,2.56,0,29.68-.15,59.86,.11,90.05,.06,6.84-2.23,9.43-9.18,9.37-27.37-.24-54.74-.12-82.12-.05-3.44,0-7.09-.62-10.83,2.41,0,19.11,.15,38.7-.1,58.3-.07,5.1,1.67,8.68,5.21,12.16,19.03,18.73,37.87,37.65,56.81,56.47,1.79,1.78,3.79,3.34,5.7,4.99Zm102.05-337.25c2.98,.53,4.26,.95,5.55,.95,31.33,.04,62.67,0,94,.1,3.8,.01,6.09-2.17,8.43-4.5,19.69-19.62,39.29-39.32,59.1-58.82,3.61-3.55,4.93-7.31,4.9-12.29-.17-31.53-.09-63.06-.09-94.6,0-3.44,0-6.88,0-10.67-79.31-28.47-158.48-32.67-239.02-10.66v123.05c3.23,.32,6.01,.82,8.79,.83,15.23,.08,30.49,.68,45.67-.18,10.44-.59,13.33,3.01,12.88,13.11-.78,17.75-.22,35.55-.22,53.67Zm425.24,170.14h-119.14c0,14.46-.12,28.27,.06,42.07,.07,5.65-2.28,7.95-7.9,7.9-16.33-.13-32.66-.07-48.98,.02-3.44,.02-7.1-.64-10.52,2.24-.12,2.54-.36,5.37-.36,8.2-.04,24.47-.15,48.95,.06,73.42,.05,5.47-1.56,9.6-5.31,13.58-8.09,8.57-15.76,17.55-24.18,27.02,39.66,34.84,78.47,68.93,117.11,102.87,58.06-46.42,117.33-212.84,99.16-277.32ZM289.37,58.22c-54.99,3.67-204.23,132.86-206.94,178.48,9.84,1.88,133.7,1.12,138.44-.86,.15-.6,.45-1.24,.45-1.88,.08-14.33,.05-28.66,.21-42.99,.26-24.25-3.38-20.81,21.01-21.02,15.35-.13,30.71-.02,46.83-.02V58.22Zm-34.74,246.9h102.56v-102.65h-102.56v102.65Zm408.88,16.52h-102.51v101.82h102.51v-101.82Zm-340.65,323.17h102.52v-101.83h-102.52v101.83Z"/>
</svg>